<svg xmlns="http://www.w3.org/2000/svg" viewBox="0 0 835.2 160" width="835.2" height="160">
  <defs>
    <linearGradient id="violetGrad" x1="0%" y1="0%" x2="100%" y2="100%">
      <stop offset="0%" stop-color="#A78BFA"/>
      <stop offset="100%" stop-color="#7C3AED"/>
    </linearGradient>
  </defs>
  <g transform="translate(15,15)">
    <rect x="0" y="0" width="110" height="110" rx="26" fill="url(#violetGrad)"/>
    <g transform="translate(17.820999999999998,76)">
      <path fill="#FFFFFF" d="M19.662000000000003 -14.616000000000001H13.514000000000001V0.0H3.596V-40.716H19.662000000000003Q24.534000000000002 -40.716 27.898000000000003 -39.034000000000006Q31.262 -37.352000000000004 32.944 -34.394000000000005Q34.626000000000005 -31.436 34.626000000000005 -27.608Q34.626000000000005 -24.07 33.002 -21.141Q31.378 -18.212 28.014000000000003 -16.414Q24.650000000000002 -14.616000000000001 19.662000000000003 -14.616000000000001ZM24.534000000000002 -27.608Q24.534000000000002 -30.044 23.142000000000003 -31.378Q21.75 -32.712 18.908 -32.712H13.514000000000001V-22.504H18.908Q21.75 -22.504 23.142000000000003 -23.838Q24.534000000000002 -25.172 24.534000000000002 -27.608Z M74.386 -20.358Q74.386 -14.384 71.747 -9.744Q69.108 -5.104 64.265 -2.552Q59.422 0.0 53.042 0.0H37.788V-40.716H53.042Q59.480000000000004 -40.716 64.29400000000001 -38.164Q69.108 -35.612 71.747 -31.001Q74.386 -26.39 74.386 -20.358ZM64.294 -20.358Q64.294 -25.984 61.162 -29.116000000000003Q58.03 -32.248000000000005 52.403999999999996 -32.248000000000005H47.706V-8.584H52.403999999999996Q58.03 -8.584 61.162 -11.658000000000001Q64.294 -14.732000000000001 64.294 -20.358Z"/>
    </g>
  </g>
  <g transform="translate(138,108)">
    <path fill="#FFFFFF" d="M33.9 -25.200000000000003H23.3V0.0H6.2V-70.2H33.9Q42.300000000000004 -70.2 48.10000000000001 -67.30000000000001Q53.900000000000006 -64.4 56.800000000000004 -59.300000000000004Q59.7 -54.2 59.7 -47.6Q59.7 -41.5 56.900000000000006 -36.45Q54.1 -31.400000000000002 48.3 -28.300000000000004Q42.5 -25.200000000000003 33.9 -25.200000000000003ZM42.300000000000004 -47.6Q42.300000000000004 -51.800000000000004 39.900000000000006 -54.10000000000001Q37.5 -56.400000000000006 32.6 -56.400000000000006H23.3V-38.800000000000004H32.6Q37.5 -38.800000000000004 39.900000000000006 -41.10000000000001Q42.300000000000004 -43.400000000000006 42.300000000000004 -47.6Z M104.4 0.0 89.80000000000001 -26.5H85.7V0.0H68.60000000000001V-70.2H97.30000000000001Q105.60000000000001 -70.2 111.45000000000002 -67.30000000000001Q117.30000000000001 -64.4 120.20000000000002 -59.35000000000001Q123.10000000000001 -54.300000000000004 123.10000000000001 -48.1Q123.10000000000001 -41.1 119.15 -35.6Q115.20000000000002 -30.1 107.5 -27.8L123.70000000000002 0.0ZM85.7 -38.6H96.30000000000001Q101.0 -38.6 103.35000000000001 -40.900000000000006Q105.70000000000002 -43.2 105.70000000000002 -47.400000000000006Q105.70000000000002 -51.400000000000006 103.35000000000001 -53.7Q101.0 -56.0 96.30000000000001 -56.0H85.7Z M150.9 -70.2V0.0H133.8V-70.2Z M242.8 -70.2V0.0H225.70000000000005V-42.1L210.00000000000003 0.0H196.20000000000002L180.40000000000003 -42.2V0.0H163.3V-70.2H183.50000000000003L203.20000000000002 -21.6L222.70000000000005 -70.2Z M272.20000000000005 -56.5V-42.300000000000004H295.1V-29.1H272.20000000000005V-13.700000000000001H298.1V0.0H255.10000000000002V-70.2H298.1V-56.5Z"/>
  </g>
  <g transform="translate(455.00000000000006,108)">
    <path fill="#C4B5FD" d="M65.7 -34.800000000000004Q65.7 -24.0 61.300000000000004 -16.15Q56.900000000000006 -8.3 48.60000000000001 -4.15Q40.300000000000004 0.0 28.700000000000003 0.0H8.0V-69.9H28.700000000000003Q40.300000000000004 -69.9 48.60000000000001 -65.7Q56.900000000000006 -61.5 61.300000000000004 -53.6Q65.7 -45.7 65.7 -34.800000000000004ZM58.6 -34.800000000000004Q58.6 -48.6 50.95 -56.35000000000001Q43.300000000000004 -64.10000000000001 28.700000000000003 -64.10000000000001H15.0V-5.800000000000001H28.700000000000003Q43.300000000000004 -5.800000000000001 50.95 -13.450000000000001Q58.6 -21.1 58.6 -34.800000000000004Z M85.60000000000001 -69.9V0.0H78.60000000000001V-69.9Z M99.10000000000001 -18.0H106.50000000000001Q107.00000000000001 -12.9 111.00000000000001 -9.05Q115.00000000000001 -5.2 122.70000000000002 -5.2Q129.8 -5.2 133.95000000000002 -8.85Q138.10000000000002 -12.5 138.10000000000002 -18.1Q138.10000000000002 -22.6 135.8 -25.35Q133.5 -28.1 130.10000000000002 -29.450000000000003Q126.70000000000002 -30.8 120.70000000000002 -32.4Q113.70000000000002 -34.300000000000004 109.60000000000002 -36.1Q105.50000000000001 -37.9 102.60000000000002 -41.7Q99.70000000000002 -45.5 99.70000000000002 -52.0Q99.70000000000002 -57.400000000000006 102.50000000000001 -61.650000000000006Q105.30000000000001 -65.9 110.4 -68.30000000000001Q115.50000000000001 -70.7 122.10000000000002 -70.7Q131.8 -70.7 137.75 -65.95Q143.70000000000002 -61.2 144.60000000000002 -53.7H137.0Q136.3 -58.0 132.3 -61.35Q128.3 -64.7 121.50000000000001 -64.7Q115.20000000000002 -64.7 111.00000000000001 -61.35Q106.80000000000001 -58.0 106.80000000000001 -52.2Q106.80000000000001 -47.800000000000004 109.10000000000002 -45.10000000000001Q111.40000000000002 -42.400000000000006 114.85000000000002 -41.0Q118.30000000000001 -39.6 124.20000000000002 -38.0Q131.0 -36.1 135.20000000000002 -34.25Q139.40000000000003 -32.4 142.3 -28.6Q145.20000000000002 -24.8 145.20000000000002 -18.400000000000002Q145.20000000000002 -13.5 142.60000000000002 -9.1Q140.0 -4.7 134.9 -2.0Q129.8 0.7000000000000001 122.70000000000002 0.7000000000000001Q115.80000000000001 0.7000000000000001 110.55000000000001 -1.7000000000000002Q105.30000000000001 -4.1000000000000005 102.30000000000001 -8.4Q99.30000000000001 -12.700000000000001 99.10000000000001 -18.0Z M199.60000000000002 -69.9V-64.10000000000001H180.20000000000002V0.0H173.20000000000002V-64.10000000000001H153.70000000000002V-69.9Z M247.90000000000003 0.0 230.60000000000002 -29.200000000000003H217.70000000000002V0.0H210.70000000000002V-69.9H231.70000000000002Q243.40000000000003 -69.9 249.45000000000005 -64.30000000000001Q255.50000000000003 -58.7 255.50000000000003 -49.6Q255.50000000000003 -42.0 251.15000000000003 -36.65Q246.8 -31.3 238.3 -29.700000000000003L256.3 0.0ZM217.70000000000002 -34.9H231.8Q240.00000000000003 -34.9 244.15000000000003 -38.900000000000006Q248.3 -42.900000000000006 248.3 -49.6Q248.3 -56.5 244.3 -60.25Q240.3 -64.0 231.70000000000002 -64.0H217.70000000000002Z M266.20000000000005 -35.0Q266.20000000000005 -45.300000000000004 270.75 -53.45Q275.3 -61.6 283.20000000000005 -66.15Q291.1 -70.7 300.80000000000007 -70.7Q310.6 -70.7 318.5 -66.15Q326.40000000000003 -61.6 330.90000000000003 -53.45Q335.40000000000003 -45.300000000000004 335.40000000000003 -35.0Q335.40000000000003 -24.700000000000003 330.90000000000003 -16.55Q326.40000000000003 -8.4 318.5 -3.85Q310.6 0.7000000000000001 300.80000000000007 0.7000000000000001Q291.1 0.7000000000000001 283.20000000000005 -3.85Q275.3 -8.4 270.75 -16.55Q266.20000000000005 -24.700000000000003 266.20000000000005 -35.0ZM328.20000000000005 -35.0Q328.20000000000005 -43.900000000000006 324.6 -50.60000000000001Q321.00000000000006 -57.300000000000004 314.80000000000007 -60.900000000000006Q308.6 -64.5 300.80000000000007 -64.5Q293.00000000000006 -64.5 286.80000000000007 -60.900000000000006Q280.6 -57.300000000000004 277.0 -50.60000000000001Q273.40000000000003 -43.900000000000006 273.40000000000003 -35.0Q273.40000000000003 -26.1 277.0 -19.35Q280.6 -12.600000000000001 286.80000000000007 -9.0Q293.00000000000006 -5.4 300.80000000000007 -5.4Q308.6 -5.4 314.80000000000007 -9.0Q321.00000000000006 -12.600000000000001 324.6 -19.35Q328.20000000000005 -26.1 328.20000000000005 -35.0Z"/>
  </g>
  <rect x="138" y="128" width="657.2" height="3" fill="#7C3AED" opacity="0.4"/>
</svg>
